<?xml version="1.0" standalone="no"?>
<!DOCTYPE svg PUBLIC "-//W3C//DTD SVG 20010904//EN"
 "http://www.w3.org/TR/2001/REC-SVG-20010904/DTD/svg10.dtd">
<svg version="1.0" xmlns="http://www.w3.org/2000/svg"
 width="2083.000000pt" height="2083.000000pt" viewBox="0 0 2083.000000 2083.000000"
 preserveAspectRatio="xMidYMid meet">
<metadata>
Created by potrace 1.11, written by Peter Selinger 2001-2013
</metadata>
<g transform="translate(0.000000,2083.000000) scale(0.100000,-0.100000)"
fill="#000000" stroke="none">
<path d="M10319 18462 c-54 -72 -1147 -1493 -1232 -1603 -15 -19 -106 -137
-203 -264 -98 -126 -186 -241 -196 -255 -11 -14 -87 -113 -169 -220 -83 -107
-175 -226 -204 -265 -30 -38 -136 -176 -235 -305 -99 -129 -218 -284 -265
-345 -47 -60 -128 -166 -181 -235 -53 -69 -105 -136 -115 -150 -352 -458 -452
-588 -462 -600 -7 -8 -50 -64 -97 -125 -144 -188 -273 -356 -325 -424 -177
-232 -921 -1198 -930 -1207 -5 -6 -17 -21 -25 -34 -8 -12 -25 -34 -37 -48 -11
-15 -354 -461 -762 -990 l-741 -964 67 -86 c37 -48 103 -134 147 -192 44 -58
84 -109 89 -115 4 -5 66 -86 138 -180 71 -93 135 -177 142 -185 13 -16 77 -98
354 -460 95 -124 176 -229 181 -235 14 -18 107 -138 173 -225 35 -46 70 -91
76 -100 7 -8 101 -130 208 -270 108 -140 208 -270 223 -289 15 -19 105 -136
200 -260 95 -124 184 -239 197 -256 13 -16 103 -133 200 -260 97 -126 188
-245 203 -264 41 -52 171 -221 285 -371 56 -74 104 -137 107 -140 4 -3 42 -52
86 -110 43 -57 85 -111 91 -120 7 -8 71 -91 143 -185 72 -93 143 -186 158
-205 15 -19 89 -116 165 -215 76 -99 143 -187 150 -195 7 -8 50 -64 97 -125
73 -95 361 -470 500 -650 26 -33 82 -107 126 -165 43 -58 82 -107 85 -110 3
-3 43 -54 89 -115 46 -60 109 -142 140 -182 30 -39 101 -131 157 -205 57 -73
138 -179 180 -234 43 -56 89 -116 103 -134 14 -18 32 -41 40 -51 8 -10 53 -68
100 -129 121 -159 508 -663 518 -675 16 -20 230 -298 290 -377 20 -27 39 -48
43 -48 4 0 89 107 189 238 100 130 189 246 198 257 10 11 31 38 47 60 17 22
91 119 165 215 74 96 148 193 165 215 16 22 35 47 42 55 7 8 63 80 124 160 61
80 118 154 127 165 9 11 37 47 61 80 25 33 47 62 51 65 3 3 23 30 45 60 22 30
42 57 45 60 3 3 35 43 70 90 36 46 71 91 77 100 7 8 137 177 289 375 152 198
284 369 293 381 10 11 36 45 58 75 22 30 98 129 169 221 71 91 223 289 339
440 115 150 212 275 215 278 3 3 24 30 45 60 22 30 48 64 57 75 10 11 59 75
110 142 51 66 112 145 134 175 23 29 135 175 249 323 114 149 220 286 235 305
15 19 52 67 82 105 29 39 103 135 163 214 61 78 219 285 353 459 134 174 249
324 255 332 7 8 41 53 77 100 36 46 70 91 77 100 79 102 174 225 363 471 257
335 376 490 387 504 5 6 38 48 73 95 36 47 68 87 71 90 3 3 25 32 49 64 24 33
49 67 56 75 18 21 321 416 358 466 17 22 32 42 35 45 6 5 49 61 175 227 l78
102 -118 153 c-65 84 -176 230 -248 323 -71 94 -132 172 -135 175 -3 3 -26 32
-51 65 -49 65 -184 241 -203 265 -25 31 -202 263 -217 283 -8 12 -19 27 -25
33 -6 6 -51 64 -100 128 -50 65 -133 173 -185 241 -52 67 -174 225 -270 350
-96 124 -184 239 -195 255 -28 39 -347 454 -355 460 -3 3 -31 39 -62 80 -31
41 -121 161 -202 265 -80 105 -160 209 -178 233 -18 24 -38 48 -43 55 -11 12
-158 203 -326 422 -46 61 -89 117 -96 125 -7 8 -108 139 -224 290 -191 249
-358 468 -509 663 -30 40 -122 160 -205 267 -82 107 -153 200 -157 205 -17 20
-295 383 -373 485 -44 58 -87 114 -97 125 -34 42 -164 211 -188 245 -13 19
-29 40 -35 46 -5 6 -49 62 -98 125 -275 359 -1080 1406 -1090 1419 -21 25
-180 232 -222 288 -21 28 -42 52 -45 52 -3 -1 -35 -40 -71 -88z m331 -2067
c25 -33 47 -62 51 -65 3 -3 18 -23 35 -45 33 -46 45 -61 59 -78 6 -7 40 -50
75 -97 36 -47 70 -92 77 -100 17 -21 448 -583 503 -655 25 -33 51 -66 57 -75
21 -25 869 -1127 951 -1235 41 -55 78 -102 82 -105 3 -3 39 -50 80 -105 41
-55 82 -109 92 -120 20 -24 230 -298 319 -415 35 -47 66 -87 69 -90 3 -3 57
-72 120 -155 62 -82 116 -152 120 -155 3 -3 39 -50 80 -105 41 -55 83 -109 92
-120 9 -11 96 -123 192 -250 97 -126 182 -237 189 -245 7 -8 26 -33 42 -55 35
-47 46 -62 60 -78 6 -7 53 -68 105 -137 52 -69 97 -127 100 -130 3 -3 54 -68
113 -145 213 -279 599 -780 615 -800 9 -11 51 -65 92 -120 41 -55 80 -107 87
-115 70 -86 115 -144 122 -158 7 -13 -27 -64 -161 -237 -93 -121 -197 -256
-230 -300 -34 -44 -212 -276 -397 -515 -184 -239 -362 -471 -396 -515 -34 -44
-101 -132 -151 -196 -49 -64 -100 -131 -114 -149 -14 -18 -148 -193 -299 -389
-262 -340 -451 -585 -498 -647 -12 -16 -154 -200 -315 -409 -674 -877 -870
-1131 -886 -1153 -9 -13 -25 -33 -34 -45 -19 -24 -347 -450 -414 -537 -108
-142 -736 -957 -747 -970 -6 -8 -48 -62 -92 -120 -95 -126 -105 -136 -113
-124 -4 6 -81 106 -172 223 -91 117 -174 226 -185 241 -11 16 -146 192 -300
391 -154 200 -292 379 -307 399 -15 19 -60 78 -100 130 -264 344 -406 528
-423 551 -11 15 -114 149 -230 299 -364 472 -514 666 -755 980 -129 168 -255
332 -280 365 -136 176 -325 421 -386 500 -38 50 -143 186 -234 304 -91 117
-174 226 -185 241 -11 16 -168 221 -350 456 -181 236 -368 478 -415 539 -46
60 -123 160 -170 221 -47 61 -96 126 -110 144 -14 18 -45 59 -70 91 -25 31
-73 93 -106 136 l-62 80 32 41 c80 108 272 358 277 362 3 3 81 104 174 225
384 501 638 831 658 855 6 9 25 33 41 55 17 22 32 42 35 45 4 3 49 61 101 130
52 69 99 130 105 136 5 6 17 22 25 34 8 12 22 30 30 40 8 10 61 78 117 152
117 151 383 498 418 543 31 39 400 520 577 750 76 99 144 187 151 195 6 9 25
33 42 55 16 22 35 47 42 55 7 8 39 51 72 95 33 44 67 87 74 95 8 8 65 83 127
165 63 83 117 152 120 155 3 3 48 61 100 130 78 104 148 194 223 290 37 47
301 392 537 700 40 53 310 402 335 435 13 17 101 131 196 255 94 124 187 244
206 268 l34 42 107 -138 c59 -75 127 -164 152 -197z"/>
</g>
</svg>
